<svg height="24" width="24" xmlns="http://www.w3.org/2000/svg"><g fill="none" fill-rule="evenodd"><path d="m0 0h24v24h-24z"/><path d="m16.9 4h-9.8c-1.15 0-1.73.11-2.35.44-.56.3-1 .75-1.31 1.31-.33.62-.44 1.2-.44 2.35v5.8c0 1.15.11 1.73.44 2.35.3.56.75 1 1.31 1.31l.15.07c.51.25 1.04.35 1.95.37h.25v2.21c0 .44.17.85.47 1.16l.12.1c.64.55 1.6.52 2.21-.08l3.47-3.39h3.53c1.15 0 1.73-.11 2.35-.44.56-.3 1-.75 1.31-1.31.33-.62.44-1.2.44-2.35v-5.8c0-1.15-.11-1.73-.44-2.35a3.17 3.17 0 0 0 -1.31-1.31 4.51 4.51 0 0 0 -2.35-.44zm-10 1.8h9.99c.88 0 1.18.06 1.5.23.25.13.44.32.57.57.17.32.23.62.23 1.5v6.16c-.02.61-.09.87-.23 1.14-.13.25-.32.44-.57.57-.32.17-.62.23-1.5.23h-4.02a.9.9 0 0 0 -.51.26l-3.47 3.4v-2.76c0-.5-.4-.9-.9-.9h-1.25a2.3 2.3 0 0 1 -1.14-.23 1.37 1.37 0 0 1 -.57-.57c-.17-.32-.23-.62-.23-1.5v-6.16c.02-.61.09-.87.23-1.14.13-.25.32-.44.57-.57.3-.16.58-.22 1.31-.23z" fill="#365398" fill-rule="nonzero"/></g></svg>